# xmcd
#
# Track frame offsets: 
#        150
#        51907
#        138978
#        167656
#        206374
#        222979
#
# Disc length: 3223 seconds
#
# Revision: 0
# Processed by: cddbd v1.5.2PL0 Copyright (c) Steve Scherf et al.
# Submitted via: ExactAudioCopy v0.95b3
#
DISCID=540c9506
DTITLE=Joe Walsh and Barnstorm  - Live 09-24-1973  FLAC
DYEAR=1900
DGENRE=
TTITLE0=Joe Walsh  and Barnstorm  - Meadows
TTITLE1=Joe Walsh  and Barnstorm  - The Bomber-Turn To Stone-Midnight Mo
TTITLE1=odies
TTITLE2=Joe Walsh  and Barnstorm  - Tend My Garden
TTITLE3=Joe Walsh  and Barnstorm  - Rocky Mountain Way
TTITLE4=Joe Walsh  and Barnstorm  - The Bomber (Outro Version)
TTITLE5=Joe Walsh  and Barnstorm  - Turn To Stone (Outro Version)
EXTD=
EXTT0=
EXTT1=
EXTT2=
EXTT3=
EXTT4=
EXTT5=
PLAYORDER=
